# xmcd CD database file
#
# Track frame offsets:
#	150
#	32650
#	64358
#	89207
#	110719
#	130816
#	165377
#	193993
#	217416
#
# Disc length: 3477 seconds
#
# Revision: 0
# Processed by: cddbd v1.5.2PL0 Copyright (c) Steve Scherf et al.
# Submitted via: CDex 1.70beta3
#
DISCID=910d9309
DTITLE=Pat Martino - We are Together Agin
DYEAR=2013
DGENRE=Jazz
TTITLE0=Body and Soul
TTITLE1=Before You Ask
TTITLE2=Footprints
TTITLE3=In a Sentimental Mood
TTITLE4=City Lights
TTITLE5=Round Midnight
TTITLE6=Pompy
TTITLE7=Portrait
TTITLE8=Peace
EXTD=YEAR: 2013
EXTT0=
EXTT1=
EXTT2=
EXTT3=
EXTT4=
EXTT5=
EXTT6=
EXTT7=
EXTT8=
PLAYORDER=
